<svg width="351" height="100" viewBox="0 0 351 100" fill="none" xmlns="http://www.w3.org/2000/svg">
<path d="M28.6406 63.1111V43.3826H41.7109V46.7869H32.7695V51.5173H41.2051V54.7439H32.7695V59.7068H41.7109V63.1111H28.6406ZM45.0714 63.1111V43.3826H49.8429L55.4484 57.5603H55.5304L61.1359 43.3826H65.9073V63.1111H62.2296V49.7673H60.3155L64.4445 43.9294L56.7882 63.1111H54.1905L46.5343 43.9294L50.6632 49.7673H48.7491V63.1111H45.0714ZM78.469 63.4529C76.5185 63.4529 74.8277 63.0382 73.3967 62.2087C71.9748 61.3793 70.8765 60.2035 70.1018 58.6814C69.3362 57.1501 68.9534 55.3409 68.9534 53.2537V53.2263C68.9534 51.13 69.3407 49.3207 70.1155 47.7986C70.8902 46.2764 71.9885 45.1052 73.4104 44.2849C74.8414 43.4555 76.5276 43.0408 78.469 43.0408C80.4195 43.0408 82.1057 43.4555 83.5276 44.2849C84.9495 45.1143 86.0478 46.2901 86.8225 47.8123C87.5972 49.3253 87.9846 51.13 87.9846 53.2263V53.2537C87.9846 55.3409 87.5972 57.1501 86.8225 58.6814C86.0478 60.2035 84.9495 61.3793 83.5276 62.2087C82.1148 63.0382 80.4286 63.4529 78.469 63.4529ZM78.469 59.9529C79.5627 59.9529 80.5061 59.6794 81.2991 59.1326C82.092 58.5766 82.7027 57.7973 83.1311 56.7947C83.5595 55.7921 83.7737 54.6117 83.7737 53.2537V53.2263C83.7737 51.85 83.5549 50.6651 83.1174 49.6716C82.689 48.669 82.0738 47.8988 81.2717 47.3611C80.4787 46.8142 79.5445 46.5408 78.469 46.5408C77.3935 46.5408 76.4547 46.8097 75.6526 47.3474C74.8596 47.8852 74.2444 48.6554 73.8069 49.658C73.3785 50.6514 73.1643 51.8409 73.1643 53.2263V53.2537C73.1643 54.6208 73.3785 55.8057 73.8069 56.8083C74.2444 57.811 74.8596 58.5857 75.6526 59.1326C76.4455 59.6794 77.3843 59.9529 78.469 59.9529ZM91.0306 63.1111V43.3826H95.8021L101.408 57.5603H101.49L107.095 43.3826H111.867V63.1111H108.189V49.7673H106.275L110.404 43.9294L102.747 63.1111H100.15L92.4935 43.9294L96.6224 49.7673H94.7084V63.1111H91.0306Z" fill="#383838"/>
<path d="M37.3574 63.1111V46.7869H31.6562V43.3826H47.2012V46.7869H41.4863V63.1111H37.3574ZM45.9542 63.1111L52.8448 43.3826H56.4816V47.2107H55.2238L50.2882 63.1111H45.9542ZM49.6593 58.3259L50.671 55.2361H59.8722L60.8839 58.3259H49.6593ZM60.2413 63.1111L55.3058 47.2107V43.3826H57.6984L64.5753 63.1111H60.2413ZM69.0432 63.1111V60.0349H74.6623C75.8472 60.0349 76.7541 59.7979 77.383 59.324C78.012 58.8409 78.3264 58.1436 78.3264 57.2322V57.2048C78.3264 56.6033 78.1806 56.0974 77.8889 55.6873C77.5972 55.268 77.1643 54.9535 76.5901 54.7439C76.025 54.5343 75.3231 54.4294 74.4846 54.4294H69.0432V51.6267H73.9924C75.1591 51.6267 76.0432 51.3943 76.6448 50.9294C77.2554 50.4555 77.5608 49.7947 77.5608 48.947V48.9197C77.5608 48.1358 77.2919 47.5297 76.7541 47.1013C76.2164 46.6638 75.4644 46.4451 74.4983 46.4451H69.0432V43.3826H75.5647C76.8134 43.3826 77.8889 43.5831 78.7912 43.9841C79.6936 44.3852 80.3909 44.9594 80.883 45.7068C81.3752 46.4451 81.6213 47.3201 81.6213 48.3318V48.3591C81.6213 49.0792 81.4527 49.7491 81.1155 50.3689C80.7873 50.9796 80.3362 51.49 79.762 51.9001C79.1877 52.3012 78.536 52.5518 77.8069 52.6521V52.7341C78.7274 52.7979 79.5432 53.044 80.2541 53.4724C80.9651 53.8917 81.5211 54.4477 81.9221 55.1404C82.3323 55.824 82.5373 56.5987 82.5373 57.4646V57.4919C82.5373 58.6404 82.2593 59.6339 81.7034 60.4724C81.1565 61.311 80.3726 61.9626 79.3518 62.4275C78.3401 62.8832 77.1278 63.1111 75.7151 63.1111H69.0432ZM66.9787 63.1111V43.3826H71.1077V63.1111H66.9787ZM84.0111 63.1111L90.9017 43.3826H94.5384V47.2107H93.2806L88.3451 63.1111H84.0111ZM87.7162 58.3259L88.7279 55.2361H97.9291L98.9408 58.3259H87.7162ZM98.2982 63.1111L93.3627 47.2107V43.3826H95.7552L102.632 63.1111H98.2982ZM107.1 63.1111V46.7869H101.399V43.3826H116.944V46.7869H111.229V63.1111H107.1ZM115.697 63.1111L122.588 43.3826H126.224V47.2107H124.966L120.031 63.1111H115.697ZM119.402 58.3259L120.414 55.2361H129.615L130.627 58.3259H119.402ZM129.984 63.1111L125.048 47.2107V43.3826H127.441L134.318 63.1111H129.984Z" fill="#383838"/>
<path d="M0 25C0 11.1929 11.1929 0 25 0L326 0C339.807 0 351 11.1929 351 25V75C351 88.8071 339.807 100 326 100L25 100C11.1929 100 0 88.8071 0 75L0 25Z" fill="#FF5EAB"/>
<path fill-rule="evenodd" clip-rule="evenodd" d="M25 0C11.1929 0 0 11.1929 0 25V75C0 88.8071 11.1929 100 25 100H235.02L279.5 47L323.98 100H326C339.807 100 351 88.8071 351 75V25C351 11.1929 339.807 0 326 0H25Z" fill="url(#paint0_linear_134_592)"/>
<defs>
<linearGradient id="paint0_linear_134_592" x1="323" y1="39.5" x2="-741.5" y2="35.5" gradientUnits="userSpaceOnUse">
<stop stop-color="#FFB2D7"/>
<stop offset="0.905" stop-color="#FF5EAB"/>
</linearGradient>
</defs>
</svg>
