<svg width="105" height="105" viewBox="0 0 105 105" fill="none" xmlns="http://www.w3.org/2000/svg">
<path d="M71.3491 52.0309C71.3491 65.3331 69.1401 77.3526 65.5873 86.0281C63.8104 90.3671 61.7072 93.8454 59.3973 96.231C57.0889 98.6152 54.6061 99.8782 52.0497 99.8782C49.4934 99.8782 47.0106 98.6152 44.7021 96.231C42.3923 93.8454 40.2891 90.3671 38.5122 86.0281C34.9594 77.3526 32.7504 65.3331 32.7504 52.0309C32.7504 38.7287 34.9594 26.7092 38.5122 18.0337C40.2891 13.6947 42.3923 10.2164 44.7021 7.83076C47.0106 5.44658 49.4934 4.18359 52.0497 4.18359C54.6061 4.18359 57.0889 5.44658 59.3973 7.83076C61.7072 10.2164 63.8104 13.6947 65.5873 18.0337C69.1401 26.7092 71.3491 38.7287 71.3491 52.0309Z" stroke="#47C5FF" stroke-opacity="0.8"/>
<path d="M70.2351 58.8647C65.5978 71.3345 59.3499 81.8367 53.0157 88.7386C49.8477 92.1905 46.6758 94.7225 43.6925 96.1585C40.7109 97.5938 37.9591 97.9169 35.5798 97.0321C33.2004 96.1473 31.3284 94.1046 30.009 91.07C28.6889 88.0336 27.9421 84.0444 27.7993 79.3613C27.5139 69.9977 29.6461 57.9649 34.2833 45.4951C38.9205 33.0253 45.1685 22.5231 51.5027 15.6212C54.6707 12.1693 57.8425 9.63733 60.8258 8.20126C63.8074 6.76602 66.5593 6.44289 68.9386 7.32771C71.3179 8.21252 73.19 10.2552 74.5093 13.2898C75.8294 16.3262 76.5762 20.3154 76.719 24.9986C77.0045 34.3621 74.8723 46.3949 70.2351 58.8647Z" stroke="#5C5A5A" stroke-opacity="0.7"/>
<path d="M66.9085 64.756C58.2157 74.8274 48.699 82.4933 40.3563 86.7545C36.1838 88.8858 32.3283 90.1534 29.0316 90.4595C25.7367 90.7655 23.0448 90.1092 21.1231 88.4506C19.2014 86.7919 18.1587 84.2249 17.9798 80.9207C17.8009 77.6146 18.4914 73.6152 19.9899 69.176C22.986 60.3002 29.1786 49.7651 37.8714 39.6937C46.5642 29.6222 56.081 21.9563 64.4236 17.6951C68.5961 15.5639 72.4516 14.2963 75.7484 13.9901C79.0432 13.6841 81.7351 14.3404 83.6568 15.999C85.5785 17.6577 86.6212 20.2248 86.8001 23.529C86.9791 26.8351 86.2886 30.8344 84.7901 35.2736C81.7939 44.1495 75.6013 54.6845 66.9085 64.756Z" stroke="#47C5FF" stroke-opacity="0.8"/>
<path d="M61.0924 68.3973C49.4343 74.8072 37.8423 78.6752 28.5376 79.7614C23.8839 80.3046 19.8284 80.1489 16.6316 79.2867C13.4367 78.4251 11.1424 76.8717 9.91935 74.6472C8.69628 72.4228 8.61374 69.6533 9.59778 66.4939C10.5824 63.3328 12.6236 59.8249 15.5754 56.1864C21.4774 48.9115 30.9536 41.1956 42.6117 34.7856C54.2699 28.3757 65.8618 24.5076 75.1665 23.4215C79.8202 22.8783 83.8757 23.034 87.0725 23.8961C90.2674 24.7578 92.5617 26.3112 93.7848 28.5356C95.0078 30.7601 95.0904 33.5296 94.1063 36.6889C93.1217 39.8501 91.0806 43.358 88.1287 46.9965C82.2268 54.2714 72.7505 61.9873 61.0924 68.3973Z" stroke="#5C5A5A" stroke-opacity="0.7"/>
<path d="M55.4797 70.3714C42.3184 72.3159 30.1052 71.9009 21.0054 69.6757C16.4542 68.5628 12.7073 67.0033 10.0116 65.081C7.31735 63.1598 5.70835 60.9041 5.33732 58.3928C4.9663 55.8816 5.85426 53.257 7.87779 50.6388C9.9025 48.019 13.0383 45.4426 17.0733 43.0611C25.1408 38.2996 36.7122 34.3706 49.8735 32.4261C63.0347 30.4816 75.2479 30.8966 84.3477 33.1217C88.8989 34.2346 92.6458 35.7942 95.3416 37.7165C98.0358 39.6377 99.6448 41.8934 100.016 44.4046C100.387 46.9159 99.4989 49.5405 97.4754 52.1587C95.4507 54.7784 92.3148 57.3549 88.2799 59.7363C80.2123 64.4979 68.6409 68.4269 55.4797 70.3714Z" stroke="#47C5FF" stroke-opacity="0.8"/>
<path d="M48.7078 70.3215C35.6942 67.5566 24.3915 62.9107 16.638 57.6533C12.7601 55.0239 9.79175 52.2561 7.93507 49.5147C6.07947 46.7749 5.3576 44.0999 5.88516 41.6168C6.41271 39.1337 8.1598 36.9832 10.969 35.2345C13.7799 33.4847 17.6171 32.1629 22.2291 31.3372C31.4503 29.6862 43.6656 30.0369 56.6792 32.8017C69.6928 35.5666 80.9955 40.2125 88.749 45.4699C92.6269 48.0993 95.5953 50.8671 97.452 53.6084C99.3076 56.3482 100.029 59.0233 99.5019 61.5064C98.9743 63.9895 97.2272 66.14 94.418 67.8887C91.6072 69.6384 87.77 70.9603 83.158 71.786C73.9367 73.437 61.7215 73.0863 48.7078 70.3215Z" stroke="#5C5A5A" stroke-opacity="0.7"/>
<path d="M42.4347 67.6859C31.2009 60.5584 22.2264 52.2643 16.7916 44.6341C14.0734 40.8178 12.2559 37.189 11.4711 33.9724C10.6869 30.7577 10.9427 27.9988 12.3026 25.8553C13.6626 23.7118 16.0497 22.3051 19.2923 21.6452C22.5367 20.9849 26.594 21.0835 31.2046 21.917C40.423 23.5837 51.75 28.17 62.9839 35.2975C74.2177 42.4249 83.1922 50.719 88.627 58.3493C91.3452 62.1655 93.1627 65.7943 93.9474 69.0109C94.7317 72.2257 94.4759 74.9846 93.1159 77.1281C91.756 79.2716 89.3689 80.6783 86.1263 81.3381C82.8818 81.9984 78.8245 81.8999 74.214 81.0663C64.9955 79.3996 53.6686 74.8133 42.4347 67.6859Z" stroke="#47C5FF" stroke-opacity="0.8"/>
<path d="M37.4471 64.1838C29.402 53.5877 23.8813 42.6856 21.4469 33.6396C20.2293 29.1152 19.7906 25.0805 20.1763 21.7921C20.5617 18.5056 21.7631 16.0088 23.7849 14.4738C25.8067 12.9387 28.5344 12.4523 31.8036 12.964C35.0748 13.476 38.8433 14.9826 42.8742 17.3709C50.9336 22.1462 59.9516 30.393 67.9967 40.989C76.0417 51.5851 81.5625 62.4872 83.9969 71.5332C85.2145 76.0576 85.6532 80.0923 85.2675 83.3807C84.8821 86.6672 83.6807 89.164 81.6589 90.699C79.6371 92.2341 76.9094 92.7205 73.6402 92.2088C70.369 91.6968 66.6005 90.1903 62.5696 87.8019C54.5102 83.0266 45.4922 74.7798 37.4471 64.1838Z" stroke="#5C5A5A" stroke-opacity="0.7"/>
<path d="M33.562 57.9603C29.7148 45.2246 28.3403 33.0819 29.2115 23.7546C29.6473 19.0896 30.6424 15.155 32.1501 12.2072C33.6569 9.26114 35.6532 7.33973 38.0832 6.60565C40.5133 5.87157 43.2395 6.36639 46.1254 7.98552C49.0129 9.60558 52.02 12.3312 54.9656 15.9747C60.8551 23.2597 66.4332 34.1326 70.2805 46.8683C74.1277 59.604 75.5022 71.7467 74.631 81.074C74.1952 85.739 73.2001 89.6736 71.6924 92.6214C70.1856 95.5675 68.1893 97.4889 65.7593 98.2229C63.3292 98.957 60.603 98.4622 57.7171 96.8431C54.8296 95.223 51.8225 92.4974 48.8769 88.8539C42.9874 81.5689 37.4093 70.696 33.562 57.9603Z" stroke="#5C5A5A" stroke-opacity="0.7"/>
</svg>
