<svg width="351" height="100" viewBox="0 0 351 100" fill="none" xmlns="http://www.w3.org/2000/svg">
<rect width="351" height="100" rx="25" fill="#07C7AB"/>
<path fill-rule="evenodd" clip-rule="evenodd" d="M25 0C11.1929 0 0 11.1929 0 25V75C0 88.8071 11.1929 100 25 100H208.574C208.196 97.5517 208 95.0474 208 92.5C208 64.0573 232.4 41 262.5 41C292.6 41 317 64.0573 317 92.5C317 95.0474 316.804 97.5517 316.426 100H326C339.807 100 351 88.8071 351 75V25C351 11.1929 339.807 0 326 0H25Z" fill="#8CE6D6"/>
</svg>
