<svg width="24" height="24" viewBox="0 0 24 24" fill="none" xmlns="http://www.w3.org/2000/svg">
<path d="M11.5715 18.8571C11.177 18.8571 10.8572 18.5373 10.8572 18.1428V15.2857C10.8572 14.8912 11.177 14.5714 11.5715 14.5714C11.9659 14.5714 12.2857 14.8912 12.2857 15.2857V16H17.2857C17.6802 16 18 16.3198 18 16.7143C18 17.1087 17.6802 17.4285 17.2857 17.4285H12.2857V18.1428C12.2857 18.5373 11.9659 18.8571 11.5715 18.8571ZM5.85717 17.4285C5.46268 17.4285 5.14288 17.1087 5.14288 16.7143C5.14288 16.3198 5.46268 16 5.85717 16H8.71431C9.1088 16 9.4286 16.3198 9.4286 16.7143C9.4286 17.1087 9.1088 17.4285 8.71431 17.4285H5.85717ZM8.71431 14.5714C8.31982 14.5714 8.00003 14.2516 8.00003 13.8571V13.1428H5.85717C5.46268 13.1428 5.14288 12.823 5.14288 12.4285C5.14288 12.0341 5.46268 11.7143 5.85717 11.7143H8.00003V11C8.00003 10.6055 8.31982 10.2857 8.71431 10.2857C9.1088 10.2857 9.4286 10.6055 9.4286 11V13.8571C9.4286 14.2516 9.1088 14.5714 8.71431 14.5714ZM11.5715 13.1428C11.177 13.1428 10.8572 12.823 10.8572 12.4285C10.8572 12.0341 11.177 11.7143 11.5715 11.7143H17.2857C17.6802 11.7143 18 12.0341 18 12.4285C18 12.823 17.6802 13.1428 17.2857 13.1428H11.5715ZM14.4286 10.2857C14.0341 10.2857 13.7143 9.96589 13.7143 9.5714V6.71425C13.7143 6.31977 14.0341 5.99997 14.4286 5.99997C14.8231 5.99997 15.1429 6.31977 15.1429 6.71425V7.42854H17.2857C17.6802 7.42854 18 7.74834 18 8.14283C18 8.53732 17.6802 8.85711 17.2857 8.85711H15.1429V9.5714C15.1429 9.96589 14.8231 10.2857 14.4286 10.2857ZM5.85717 8.85711C5.46268 8.85711 5.14288 8.53732 5.14288 8.14283C5.14288 7.74834 5.46268 7.42854 5.85717 7.42854H11.5715C11.9659 7.42854 12.2857 7.74834 12.2857 8.14283C12.2857 8.53732 11.9659 8.85711 11.5715 8.85711H5.85717Z" fill="white"/>
<circle cx="12" cy="12" r="11.5" stroke="white"/>
</svg>
