<svg width="351" height="100" viewBox="0 0 351 100" fill="none" xmlns="http://www.w3.org/2000/svg">
<path d="M0 25C0 11.1929 11.1929 0 25 0L326 0C339.807 0 351 11.1929 351 25V75C351 88.8071 339.807 100 326 100L25 100C11.1929 100 0 88.8071 0 75L0 25Z" fill="#ADADAD"/>
<path fill-rule="evenodd" clip-rule="evenodd" d="M25 0C11.1929 0 0 11.1929 0 25V75C0 88.8071 11.1929 100 25 100H228.77L235.327 71.2728L279.5 50L323.673 71.2728L330.152 99.6568C341.983 97.6792 351 87.3926 351 75V25C351 11.1929 339.807 0 326 0H25Z" fill="url(#paint0_linear_147_640)"/>
<path d="M351 65.5L273 0H314L351 30.5V65.5Z" fill="#FF9D14"/>
<path d="M302.194 10.13L303.023 9.17118L304.526 10.4711C304.878 10.7756 305.229 10.9228 305.578 10.9127C305.933 10.9022 306.254 10.7304 306.543 10.3972L306.55 10.3891C306.838 10.056 306.96 9.71451 306.917 9.36478C306.877 9.01738 306.68 8.69144 306.328 8.38695L304.825 7.08703L305.665 6.11605L307.469 7.67596C307.88 8.03197 308.168 8.42745 308.331 8.86238C308.497 9.29461 308.536 9.73482 308.446 10.183C308.36 10.6336 308.143 11.0593 307.796 11.4601L307.789 11.4682C307.44 11.8718 307.049 12.1489 306.616 12.2997C306.185 12.4527 305.744 12.4784 305.292 12.3766C304.841 12.2748 304.409 12.0459 303.997 11.6899L302.194 10.13ZM299.982 11.448L305.051 5.58554L306.278 6.64656L301.208 12.509L299.982 11.448ZM305.528 16.244L310.597 10.3816L313.039 12.4931C313.483 12.8772 313.795 13.2798 313.976 13.7008C314.161 14.1215 314.214 14.5415 314.136 14.961C314.06 15.3829 313.855 15.7861 313.523 16.1707L313.516 16.1788C313.19 16.5553 312.804 16.8131 312.357 16.9521C311.915 17.0907 311.469 17.0812 311.018 16.9235L310.24 20.3194L308.851 19.1179L309.613 16.0277C309.605 16.0207 309.595 16.0125 309.585 16.0031C309.574 15.9938 309.564 15.9856 309.556 15.9785L308.609 15.1599L306.754 17.305L305.528 16.244ZM309.382 14.2662L310.463 15.2007C310.769 15.4654 311.078 15.5902 311.389 15.5753C311.705 15.56 311.989 15.4074 312.239 15.1176L312.246 15.1095C312.492 14.8251 312.6 14.5228 312.569 14.2026C312.538 13.8825 312.368 13.5889 312.059 13.3219L310.995 12.4014L309.382 14.2662ZM311.244 21.1876L316.314 15.3252L320.198 18.6839L319.323 19.6955L316.666 17.3978L315.443 18.8116L317.95 20.9793L317.135 21.9219L314.628 19.7541L313.346 21.237L316.003 23.5347L315.128 24.5463L311.244 21.1876ZM316.359 25.6112L321.429 19.7488L322.835 20.9644L320.746 26.6564L320.819 26.7196L326.146 23.8277L327.552 25.0433L322.482 30.9058L321.389 29.9607L324.839 25.9712L324.234 25.4477L326.883 24.7491L319.805 28.5905L319.037 27.9265L321.821 20.3715L321.508 23.0902L320.902 22.5668L317.452 26.5563L316.359 25.6112ZM323.847 32.0866L328.917 26.2242L330.144 27.2852L325.074 33.1476L323.847 32.0866ZM328.76 36.5973C328.259 36.164 327.902 35.6974 327.691 35.1974C327.482 34.6997 327.417 34.2005 327.495 33.6998C327.575 33.2015 327.804 32.7343 328.181 32.2982L331.501 28.459L332.728 29.52L329.503 33.2496C329.285 33.5015 329.143 33.7618 329.076 34.0307C329.014 34.2992 329.03 34.5634 329.122 34.8232C329.217 35.0854 329.396 35.3301 329.659 35.5573C329.922 35.7845 330.188 35.9251 330.459 35.9791C330.732 36.0354 330.996 36.0125 331.25 35.9103C331.506 35.8054 331.743 35.627 331.961 35.3751L335.186 31.6456L336.413 32.7066L333.093 36.5458C332.718 36.9792 332.289 37.2731 331.805 37.4275C331.326 37.5815 330.824 37.59 330.299 37.4529C329.777 37.3182 329.263 37.033 328.76 36.5973ZM332.705 39.7464L337.775 33.8839L339.18 35.0995L337.091 40.7915L337.164 40.8548L342.491 37.9629L343.897 39.1785L338.827 45.0409L337.734 44.0959L341.185 40.1063L340.579 39.5828L343.228 38.8843L336.15 42.7257L335.382 42.0616L338.166 34.5067L337.853 37.2254L337.248 36.7019L333.798 40.6915L332.705 39.7464Z" fill="white"/>
<defs>
<linearGradient id="paint0_linear_147_640" x1="368.5" y1="50" x2="-780.5" y2="43.5" gradientUnits="userSpaceOnUse">
<stop stop-color="#DADADA"/>
<stop offset="1" stop-color="#747474"/>
</linearGradient>
</defs>
</svg>
