<svg width="351" height="100" viewBox="0 0 351 100" fill="none" xmlns="http://www.w3.org/2000/svg">
<path d="M28.6406 63.1111V43.3826H41.7109V46.7869H32.7695V51.5173H41.2051V54.7439H32.7695V59.7068H41.7109V63.1111H28.6406ZM45.0714 63.1111V43.3826H49.8429L55.4484 57.5603H55.5304L61.1359 43.3826H65.9073V63.1111H62.2296V49.7673H60.3155L64.4445 43.9294L56.7882 63.1111H54.1905L46.5343 43.9294L50.6632 49.7673H48.7491V63.1111H45.0714ZM78.469 63.4529C76.5185 63.4529 74.8277 63.0382 73.3967 62.2087C71.9748 61.3793 70.8765 60.2035 70.1018 58.6814C69.3362 57.1501 68.9534 55.3409 68.9534 53.2537V53.2263C68.9534 51.13 69.3407 49.3207 70.1155 47.7986C70.8902 46.2764 71.9885 45.1052 73.4104 44.2849C74.8414 43.4555 76.5276 43.0408 78.469 43.0408C80.4195 43.0408 82.1057 43.4555 83.5276 44.2849C84.9495 45.1143 86.0478 46.2901 86.8225 47.8123C87.5972 49.3253 87.9846 51.13 87.9846 53.2263V53.2537C87.9846 55.3409 87.5972 57.1501 86.8225 58.6814C86.0478 60.2035 84.9495 61.3793 83.5276 62.2087C82.1148 63.0382 80.4286 63.4529 78.469 63.4529ZM78.469 59.9529C79.5627 59.9529 80.5061 59.6794 81.2991 59.1326C82.092 58.5766 82.7027 57.7973 83.1311 56.7947C83.5595 55.7921 83.7737 54.6117 83.7737 53.2537V53.2263C83.7737 51.85 83.5549 50.6651 83.1174 49.6716C82.689 48.669 82.0738 47.8988 81.2717 47.3611C80.4787 46.8142 79.5445 46.5408 78.469 46.5408C77.3935 46.5408 76.4547 46.8097 75.6526 47.3474C74.8596 47.8852 74.2444 48.6554 73.8069 49.658C73.3785 50.6514 73.1643 51.8409 73.1643 53.2263V53.2537C73.1643 54.6208 73.3785 55.8057 73.8069 56.8083C74.2444 57.811 74.8596 58.5857 75.6526 59.1326C76.4455 59.6794 77.3843 59.9529 78.469 59.9529ZM91.0306 63.1111V43.3826H95.8021L101.408 57.5603H101.49L107.095 43.3826H111.867V63.1111H108.189V49.7673H106.275L110.404 43.9294L102.747 63.1111H100.15L92.4935 43.9294L96.6224 49.7673H94.7084V63.1111H91.0306Z" fill="#383838"/>
<rect width="351" height="100" rx="25" fill="#47C5FF"/>
<path fill-rule="evenodd" clip-rule="evenodd" d="M25 0C11.1929 0 0 11.1929 0 25V75C0 88.8071 11.1929 100 25 100H212V71.7036C212 57.8965 223.193 46.7036 237 46.7036H292C305.807 46.7036 317 57.8965 317 71.7036V100H326C339.807 100 351 88.8071 351 75V25C351 11.1929 339.807 0 326 0H25Z" fill="#91DCFF"/>
</svg>
