<svg width="133" height="133" viewBox="0 0 133 133" fill="none" xmlns="http://www.w3.org/2000/svg">
<path d="M66.5 18.4408L79.4006 53.304L79.4804 53.5196L79.696 53.5994L114.559 66.5L79.696 79.4006L79.4804 79.4804L79.4006 79.696L66.5 114.559L53.5994 79.696L53.5196 79.4804L53.304 79.4006L18.4408 66.5L53.304 53.5994L53.5196 53.5196L53.5994 53.304L66.5 18.4408Z" stroke="#FF5EAB"/>
<path d="M66.5 1.44077L83.9921 48.7125L84.0719 48.9281L84.2875 49.0079L131.559 66.5L84.2875 83.9921L84.0719 84.0719L83.9921 84.2875L66.5 131.559L49.0079 84.2875L48.9281 84.0719L48.7125 83.9921L1.44077 66.5L48.7125 49.0079L48.9281 48.9281L49.0079 48.7125L66.5 1.44077Z" stroke="#5C5A5A" stroke-opacity="0.7"/>
</svg>
