<svg width="22" height="22" viewBox="0 0 22 22" fill="none" xmlns="http://www.w3.org/2000/svg">
<path d="M10.0552 11.7016H1.8232C1.36856 11.7016 1 11.333 1 10.8784V10.8784C1 10.4237 1.36856 10.0552 1.8232 10.0552H10.0552V1.8232C10.0552 1.36856 10.4237 1 10.8784 1V1C11.333 1 11.7016 1.36856 11.7016 1.8232V10.0552H19.9336C20.3882 10.0552 20.7568 10.4237 20.7568 10.8784V10.8784C20.7568 11.333 20.3882 11.7016 19.9336 11.7016H11.7016V19.9336C11.7016 20.3882 11.333 20.7568 10.8784 20.7568V20.7568C10.4237 20.7568 10.0552 20.3882 10.0552 19.9336V11.7016Z" fill="white" stroke="white" stroke-width="1.5"/>
</svg>
